<svg xmlns="http://www.w3.org/2000/svg" width="256" height="256" viewBox="0 0 100 100"><rect width="100" height="100" rx="20" fill="#0d044e" style="--darkreader-inline-fill: var(--darkreader-background-7d6ee7, #231683);" data-darkreader-inline-fill=""></rect><path d="M22.46 20.21L22.46 18.50L49.37 18.50Q61.88 18.50 68.13 21.88Q74.39 25.25 74.39 33.26L74.39 33.26Q74.39 45.59 59.54 48.02L59.54 48.02L59.54 48.20Q77.54 50.45 77.54 63.86L77.54 63.86Q77.54 73.67 70.16 77.58Q62.78 81.50 48.92 81.50L48.92 81.50L22.46 81.50L22.46 79.79L28.31 79.79L28.31 20.21L22.46 20.21ZM47.93 49.64L45.86 49.64L45.86 79.79L50.09 79.79Q55.04 79.79 57.02 76.37Q59 72.95 59 66.29L59 66.29L59 61.52Q59 55.58 56.57 52.61Q54.14 49.64 47.93 49.64L47.93 49.64ZM48.74 20.21L45.86 20.21L45.86 47.93L48.20 47.93Q52.88 47.93 54.73 45.09Q56.57 42.26 56.57 36.41L56.57 36.41L56.57 32.18Q56.57 25.52 54.95 22.87Q53.33 20.21 48.74 20.21L48.74 20.21Z" fill="#fff"></path></svg>